<?xml version="1.0" encoding="UTF-8"?>
<!DOCTYPE svg PUBLIC "-//W3C//DTD SVG 1.1//EN" "http://www.w3.org/Graphics/SVG/1.1/DTD/svg11.dtd">
<!-- Creator: CorelDRAW 2021 (64-Bit) -->
<svg xmlns="http://www.w3.org/2000/svg" xml:space="preserve" width="1.25246in" height="1.81026in" version="1.1" style="shape-rendering:geometricPrecision; text-rendering:geometricPrecision; image-rendering:optimizeQuality; fill-rule:evenodd; clip-rule:evenodd"
viewBox="0 0 225.76 326.3"
 xmlns:xlink="http://www.w3.org/1999/xlink"
 xmlns:xodm="http://www.corel.com/coreldraw/odm/2003">
 <defs>
  <style type="text/css">
   <![CDATA[
    .fil1 {fill:#2261FE}
    .fil0 {fill:#2266D1}
    .fil3 {fill:#3AFEDE}
    .fil2 {fill:#FE3385}
   ]]>
  </style>
 </defs>
 <g id="Layer_x0020_1">
  <metadata id="CorelCorpID_0Corel-Layer"/>
  <path class="fil0" d="M-0 112.63c7.97,2.3 156.66,94.79 163.34,101.7l0 0c14.59,-20.48 40.89,-14.55 58.63,-71.71 -11.61,-3.72 -43.64,-26.92 -56.3,-34.89l-109.39 -70.81c-10.83,-6.84 -47.29,-31.91 -56.15,-35.27l-0.13 110.99z"/>
  <path class="fil1" d="M221.97 142.62c14.92,-60.99 -16.71,-106.66 -52.08,-127.21 -26.13,-15.18 -34.41,-15.41 -67.89,-15.4l-101.88 1.64c8.85,3.36 45.32,28.43 56.15,35.27l109.39 70.81c12.67,7.98 44.69,31.18 56.3,34.89z"/>
  <path class="fil2" d="M1.67 227.79c2.69,-1.41 6.04,-1.62 9.09,-2.29 46.74,-4.2 94.22,9.7 152.58,-11.17 -6.69,-6.91 -155.38,-99.4 -163.34,-101.7l1.67 115.16z"/>
  <path class="fil3" d="M1.67 227.79c27.22,14.17 53.67,33.66 80.36,49.65 13.1,7.85 25.9,16.06 39.57,24.49 11.31,6.98 29.37,20.25 40.37,24.37l1.11 -2.66c0.11,-0.41 0.32,-1.01 0.42,-1.49 0.11,-0.53 0.21,-1.07 0.29,-1.65 1.32,-9.42 -0.15,-103.12 -0.45,-106.16 -50.2,17.96 -144.69,4.56 -161.67,13.46z"/>
 </g>
</svg>
